<svg xmlns="http://www.w3.org/2000/svg" width="40" height="40" viewBox="0 0 40 40"><g transform="translate(-272 -1296)"><circle cx="20" cy="20" r="20" transform="translate(272 1296)" fill="#e6f7ff"/><path d="M16.165,17.459h-4c-.3,0,0-.3,0,0v7c0,.3-.3,1,0,1h4c.3,0,0-.7,0-1v-7C16.165,17.16,16.464,17.459,16.165,17.459Z" transform="translate(277.835 1299.541)" fill="#1890ff"/><path d="M3.66,23.211h-3c-.3,0-1-.3-1,0v4a1.657,1.657,0,0,0,1,1h3a1.657,1.657,0,0,0,1-1v-4C4.66,22.912,3.959,23.211,3.66,23.211Z" transform="translate(283.34 1296.789)" fill="#1890ff"/><path d="M27.67,10.706h-3a1.657,1.657,0,0,0-1,1v10a1.657,1.657,0,0,0,1,1h3a1.657,1.657,0,0,0,1-1v-10A1.657,1.657,0,0,0,27.67,10.706Z" transform="translate(272.33 1302.294)" fill="#1890ff"/><path d="M11.088,6.66c.139,0-.106.106,0,0l5-5v3h1v-4a1.657,1.657,0,0,0-1-1h-3v1h2l-4,5-2-3a.867.867,0,0,0-1,0l-3,3,1,1,2-3,3,3C11.194,6.766,10.95,6.66,11.088,6.66Z" transform="translate(280.912 1307.34)" fill="#1890ff"/></g></svg>