<svg xmlns="http://www.w3.org/2000/svg" width="40" height="40" viewBox="0 0 40 40"><g transform="translate(-276 -1296)"><circle cx="20" cy="20" r="20" transform="translate(276 1296)" fill="#fff1f0"/><path d="M4.125,7.535v-7h9v7l3-1-2-1v-5c0-.278.278-1,0-1h-11c-.278,0,0,.722,0,1v5l-2,1Z" transform="translate(286.875 1307.465)" fill="#f5222d"/><path d="M8.535,18.621c-.075.042.084,0,0,0a7.9,7.9,0,0,1-1,0l-8-4v8a1.769,1.769,0,0,0,1,1h15a1.769,1.769,0,0,0,1-1v-8Z" transform="translate(287.465 1300.379)" fill="#f5222d"/><path d="M11.009,10.312l-2-2a.921.921,0,0,1,0-1l2-2,1,1-2,1,2,2Z" transform="translate(282.991 1304.688)" fill="#f5222d"/><path d="M18.277,10.312l-1-1,2-2-2-1,1-1,2,2a.921.921,0,0,1,0,1Z" transform="translate(278.723 1304.688)" fill="#f5222d"/></g></svg>