<svg xmlns="http://www.w3.org/2000/svg" width="48" height="48" viewBox="0 0 48 48"><g transform="translate(-1756.067 -378.462)"><path d="M1756.071,478.035" transform="translate(-0.004 -72.574)" fill="#0032d8"/><path d="M1780.067,378.462v14l-12,7-12-7h0Z" transform="translate(0 0)" fill="#00c8f0"/><path d="M1768.067,435.749l12,6v14h0l-12-7-12-7v-13Z" transform="translate(0 -36.287)" fill="#1563ff"/><path d="M1854.671,485.034v14l-12-7h0v-14Z" transform="translate(-62.604 -72.572)" fill="#1563ff"/><path d="M1842.67,378.462h0v14h0l12,7h0l12,6v-13Z" transform="translate(-62.604)" fill="#1563ff"/><path d="M1866.671,428.749v13l-12,7-12-7,12-6Z" transform="translate(-62.604 -36.287)" fill="#00c8f0"/><path d="M1854.671,485.034l-12,7h0v-14Z" transform="translate(-62.604 -72.572)" fill="#0b96f8"/></g></svg>