<svg xmlns="http://www.w3.org/2000/svg" width="23" height="24.126" viewBox="0 0 23 24.126"><g transform="translate(-1)"><g transform="translate(1)"><path d="M15.258,2V0h-1V2a4.03,4.03,0,0,0-3,4,4.1,4.1,0,0,0,4,4c2.134,0,3-1.866,3-4A4.03,4.03,0,0,0,15.258,2Z" transform="translate(-3.258)" fill="#722ed1"/><path d="M21,19.741h2v-2H20l-3-6a7.077,7.077,0,0,1-3,2l3,4H13v-1H12v1H9l2-4a7.073,7.073,0,0,1-3-2l-3,6H3v2H4l-3,7a4.583,4.583,0,0,0,5-2l2-5h4v2h1v-2h4l3,5a3.3,3.3,0,0,0,4,2Z" transform="translate(-1 -2.741)" fill="#722ed1"/></g></g></svg>