<svg xmlns="http://www.w3.org/2000/svg" width="24.042" height="24" viewBox="0 0 24.042 24"><g transform="translate(0.042 0.012)"><path d="M8,7.988v-2c1.378-.487,2.247-2.56,2-4s-1.539-2-3-2-2.753.56-3,2,.622,3.513,2,4v2c0,.265-.188.812,0,1l3,2v12a1,1,0,0,0,2,0v-12c0-.265.188-.812,0-1Z" fill="#722ed1"/><path d="M4,16.988v-2c1.378-.487,2.247-2.56,2-4s-1.539-2-3-2-2.753.56-3,2,.622,3.513,2,4v2c0,.265-.188.812,0,1l3,2v3a1,1,0,0,0,2,0v-3c0-.265.188-.812,0-1Z" fill="#722ed1"/><path d="M18,7.988v-2c1.378-.487,2.247-2.56,2-4s-1.539-2-3-2-2.753.56-3,2,.622,3.513,2,4v2l-3,2c-.188.187,0,.735,0,1v12a1,1,0,0,0,2,0v-12l3-2C18.187,8.8,18,8.253,18,7.988Z" fill="#722ed1"/><path d="M24,11.988a3.333,3.333,0,0,0-3-3,2.511,2.511,0,0,0-3,2,3.658,3.658,0,0,0,2,4v2l-3,2c-.188.187,0,.735,0,1v3a1,1,0,0,0,2,0v-3l3-2c.188-.187,0-.735,0-1v-2A3.246,3.246,0,0,0,24,11.988Z" fill="#722ed1"/></g></svg>