<svg xmlns="http://www.w3.org/2000/svg" xmlns:xlink="http://www.w3.org/1999/xlink" width="16.16" height="16.16" viewBox="0 0 16.16 16.16"><defs><radialGradient id="a" cx="0.133" cy="1.005" r="1.305" gradientTransform="translate(0)" gradientUnits="objectBoundingBox"><stop offset="0.09" stop-color="#fa8f21"/><stop offset="0.78" stop-color="#d82d7e"/></radialGradient><radialGradient id="b" cx="0.606" cy="1.05" r="1.029" gradientTransform="translate(0)" gradientUnits="objectBoundingBox"><stop offset="0.64" stop-color="#8c3aaa" stop-opacity="0"/><stop offset="1" stop-color="#8c3aaa"/></radialGradient></defs><g transform="translate(0.081 0.08)"><path d="M5,8A3.271,3.271,0,0,1,8,5a3.271,3.271,0,0,1,3,3,3.271,3.271,0,0,1-3,3A3.271,3.271,0,0,1,5,8M4,8a3.926,3.926,0,0,0,4,4,3.926,3.926,0,0,0,4-4A3.926,3.926,0,0,0,8,4,3.926,3.926,0,0,0,4,8m7-4a1,1,0,0,0,2,0,1.03,1.03,0,0,0-1-1h0a1.031,1.031,0,0,0-1,1M5,15c-.78-.036-1.718-.89-2-1-.374-.145-.72.28-1,0s.145-.626,0-1c-.11-.282-.965-1.22-1-2-.039-.843,0-.864,0-3S.961,5.844,1,5c.036-.78.891-1.718,1-2,.145-.374-.28-.72,0-1s.626.145,1,0c.282-.11,1.22-.965,2-1,.843-.039.865,0,3,0s2.156-.038,3,0c.78.036,1.718.891,2,1,.374.145.72-.28,1,0s-.145.626,0,1c.11.282.965,1.22,1,2,.039.844,0,.864,0,3s.039,2.156,0,3c-.036.78-.891,1.718-1,2-.145.374.28.72,0,1s-.626-.145-1,0c-.282.11-1.22.965-2,1-.843.039-.864,0-3,0s-2.157.039-3,0M5,0C4.148.039,3.508-.2,3,0A6.681,6.681,0,0,0,1,1,6.656,6.656,0,0,0,0,3c-.2.509.039,1.148,0,2s0,.827,0,3-.039,2.147,0,3-.2,1.491,0,2a6.659,6.659,0,0,0,1,2,6.7,6.7,0,0,0,2,1c.509.2,1.148-.039,2,0s.827,0,3,0,2.147.039,3,0,1.491.2,2,0a6.7,6.7,0,0,0,2-1,6.673,6.673,0,0,0,1-2c.2-.509-.038-1.148,0-2s0-.827,0-3,.039-2.147,0-3,.2-1.492,0-2a6.7,6.7,0,0,0-1-2,6.667,6.667,0,0,0-2-1c-.509-.2-1.149.038-2,0s-.827,0-3,0S5.853-.039,5,0" fill="url(#a)"/><path d="M5,8A3.271,3.271,0,0,1,8,5a3.271,3.271,0,0,1,3,3,3.271,3.271,0,0,1-3,3A3.271,3.271,0,0,1,5,8M4,8a3.926,3.926,0,0,0,4,4,3.926,3.926,0,0,0,4-4A3.926,3.926,0,0,0,8,4,3.926,3.926,0,0,0,4,8m7-4a1,1,0,0,0,2,0,1.03,1.03,0,0,0-1-1h0a1.031,1.031,0,0,0-1,1M5,15c-.78-.036-1.718-.89-2-1-.374-.145-.72.28-1,0s.145-.626,0-1c-.11-.282-.965-1.22-1-2-.039-.843,0-.864,0-3S.961,5.844,1,5c.036-.78.891-1.718,1-2,.145-.374-.28-.72,0-1s.626.145,1,0c.282-.11,1.22-.965,2-1,.843-.039.865,0,3,0s2.156-.038,3,0c.78.036,1.718.891,2,1,.374.145.72-.28,1,0s-.145.626,0,1c.11.282.965,1.22,1,2,.039.844,0,.864,0,3s.039,2.156,0,3c-.036.78-.891,1.718-1,2-.145.374.28.72,0,1s-.626-.145-1,0c-.282.11-1.22.965-2,1-.843.039-.864,0-3,0s-2.157.039-3,0M5,0C4.148.039,3.508-.2,3,0A6.681,6.681,0,0,0,1,1,6.656,6.656,0,0,0,0,3c-.2.509.039,1.148,0,2s0,.827,0,3-.039,2.147,0,3-.2,1.491,0,2a6.659,6.659,0,0,0,1,2,6.7,6.7,0,0,0,2,1c.509.2,1.148-.039,2,0s.827,0,3,0,2.147.039,3,0,1.491.2,2,0a6.7,6.7,0,0,0,2-1,6.673,6.673,0,0,0,1-2c.2-.509-.038-1.148,0-2s0-.827,0-3,.039-2.147,0-3,.2-1.492,0-2a6.7,6.7,0,0,0-1-2,6.667,6.667,0,0,0-2-1c-.509-.2-1.149.038-2,0s-.827,0-3,0S5.853-.039,5,0" fill="url(#b)"/></g></svg>