<svg xmlns="http://www.w3.org/2000/svg" width="16" height="16" viewBox="0 0 16 16"><path d="M13,6a1.248,1.248,0,0,1-1-1c0-.828-.172-1-1-1a1.248,1.248,0,0,1-1-1,1.248,1.248,0,0,1,1-1c.828,0,1-.172,1-1a1.248,1.248,0,0,1,1-1,1.248,1.248,0,0,1,1,1c0,.828.172,1,1,1a1.248,1.248,0,0,1,1,1,1.248,1.248,0,0,1-1,1c-.828,0-1,.172-1,1A1.248,1.248,0,0,1,13,6Z" fill="#722ed1"/><path d="M6,16a1,1,0,0,1-1-1,4,4,0,0,0-4-4A1,1,0,0,1,1,9,4,4,0,0,0,5,5,1,1,0,0,1,7,5a4,4,0,0,0,4,4,1,1,0,0,1,0,2,4,4,0,0,0-4,4A1,1,0,0,1,6,16Z" fill="#722ed1"/></svg>