<svg xmlns="http://www.w3.org/2000/svg" width="302.288" height="155.895" viewBox="0 0 302.288 155.895"><g transform="translate(-213.712 -3772.123)"><path d="M78,10l8-3L78,4V0L91,5V9L78,14ZM5,35c-2.787,0-5-.886-5-4H0c0-3.773,2.98-5,7-5H9V25c0-1.56-.36-3-2-3-1.474,0-1.92.853-2,2H0c.327-3.446,3.393-5,7-5,3.688,0,7,2.146,7,6V35H9V33A4.47,4.47,0,0,1,5,35Zm4-5V28H7c-2.133,0-3,.606-3,2v1c0,1.067.521,1,2,1S9,31.64,9,30Zm14,5c-4.267,0-7-2.753-7-8h0c0-5.253,2.9-8,7-8,3.527,0,6.668,1.985,7,6H26c-.247-1.474-1.526-2-3-2-1.806,0-3,.966-3,4v1c0,3.114,1.033,4,3,4a3.261,3.261,0,0,0,3-3h4C29.753,32.532,27.181,35,23,35Zm16,0c-4.267,0-7-2.753-7-8h0c0-5.247,2.9-8,7-8,3.527,0,6.668,1.985,7,6H42c-.247-1.474-1.526-2-3-2-1.806,0-3,.966-3,4v1c0,3.114,1.033,4,3,4a3.261,3.261,0,0,0,3-3h4C45.753,32.527,43.181,35,39,35Zm17,0c-4.427,0-8-1.838-8-7V27c0-5.167,2.819-8,7-8,3.854,0,7,1.833,7,7v2H52a3.966,3.966,0,0,0,4,4,2.961,2.961,0,0,0,3-2h4C62.427,32.862,60.1,35,56,35Zm-4-9h6c-.08-2.294-1.279-4-3-4C53.606,22.086,52.327,23.54,52,26Zm13-6h4v2a5.74,5.74,0,0,1,5-3c2.787,0,5,2.307,5,6V35H74V25c0-1.806-.446-2-2-2a2.916,2.916,0,0,0-3,3v9H65Zm22-5v5h3v3H87v7c0,1.147-.067,2,1,2a7.988,7.988,0,0,0,2,0v3a17.716,17.716,0,0,1-3,0c-3.361,0-5-.886-5-4V23H81V20h1V17Zm19,20h-4V33c-.74,1.474-2.706,2-5,2-2.787,0-5-1.393-5-5V20h5v9c0,1.806.526,3,2,3a2.969,2.969,0,0,0,3-3V20h4V35Zm3-15h4v2a5.046,5.046,0,0,1,5-3v5c-2.953,0-5,.454-5,3v8h-4Zm18,15c-4.427,0-8-1.838-8-7V27a7.685,7.685,0,0,1,8-8c3.854,0,7,1.833,7,7v2H124c.166,2.787,1.194,4,3,4a2.961,2.961,0,0,0,3-2h4C133.346,32.862,131.02,35,127,35Zm-3-9h6c-.08-2.294-1.279-4-3-4C125.687,22.086,124.407,23.54,124,26Z" transform="translate(216 3776)" fill="#8989a2"/><g transform="translate(447.246 3767.215)"><path d="M67.175,32.66c-.675-.232-1.314.2-2,0,.114-.462-.1-1.534,0-2,1.546-7.5,1.451-13.01-2-15-3.309-1.909-9.534-.757-15,4-.539.47-.486,1.5-1,2-.344-.33-.644-.683-1-1-5.729-5.087-11.552-7-15-5-3.306,1.914-4.392,6.889-3,14,.138.7-.174,1.3,0,2-.812.231-1.249.738-2,1-6.716,2.341-11,6.194-11,10,0,3.932,5,7.609,12,10,.567.193.424.836,1,1-.187.75.145,1.241,0,2-1.327,6.988-.3,13.1,3,15,3.406,1.964,9.434-.135,15-5,.44-.385.558-1.572,1-2,.557.537,1.414,1.494,2,2,5.391,4.639,10.705,6.907,14,5,3.4-1.97,4.436-8.748,3-16-.109-.554-.857-.424-1-1,.4-.118,1.616-.873,2-1,7.272-2.409,12-6.016,12-10C79.175,38.84,74.027,35.018,67.175,32.66Z" transform="translate(-10.421 -9.875)" fill="#8989a2"/><path d="M73.118,57.586c-.347.115-.637-.108-1,0-.8-2.542-2.674-5.208-4-8a63.461,63.461,0,0,0,3-8c.649.188,1.393.791,2,1,5.87,2.021,10,4.7,10,7C83.118,52.039,79.4,55.506,73.118,57.586Zm-3,5a20.259,20.259,0,0,1,0,8c-.378,2.037-1.061,3.456-2,4-2,1.157-6.39-.033-11-4-.529-.455-.466-1.486-1-2a51.086,51.086,0,0,0,5-6c3.067-.272,6.372-1.393,9-2C70.247,61.109,70.018,62.086,70.118,62.586Zm-26,12a6.85,6.85,0,0,1-5,0c-2-1.154-2.134-5.024-1-11,.135-.706-.174-2.3,0-3,2.6.575,5.926,1.751,9,2a53.081,53.081,0,0,0,5,6c-.394.381-.588,1.639-1,2A20.512,20.512,0,0,1,44.118,74.586Zm-9-17a26.787,26.787,0,0,1-8-4,5.293,5.293,0,0,1-2-4c0-2.31,3.256-5,9-7,.721-.25,1.266-.792,2-1a63.85,63.85,0,0,0,3,8,63.061,63.061,0,0,0-3,8C35.592,57.436,35.635,57.763,35.118,57.586Zm3-21c-1.192-6.093-.992-10.847,1-12,2.122-1.229,7.054.608,12,5,.316.281.682.7,1,1a52.958,52.958,0,0,0-5,6c-2.983.277-6.374,1.405-9,2C37.956,37.939,38.246,37.242,38.118,36.586Zm27,7c-.62-1.071-1.334-2.957-2-4,2.024.255,4.179.584,6,1-.547,1.752-1.2,4.122-2,6C66.531,45.474,65.748,44.674,65.118,43.586Zm-11-11c1.25,1.354,2.769,2.36,4,4-2.5-.118-5.5-.117-8,0A51.58,51.58,0,0,1,54.118,32.586Zm-11,11c-.622,1.079-1.429,1.893-2,3-.789-1.872-1.449-4.223-2-6,1.81-.405,3.989-.749,6-1C44.444,40.636,43.741,42.506,43.118,43.586Zm2,16a60.484,60.484,0,0,1-6-1c.56-1.809,1.194-4.088,2-6,.574,1.108,1.375,2.92,2,4C43.755,57.688,44.428,58.516,45.118,59.586Zm9,8c-1.284-1.386-2.749-3.351-4-5,1.215.048,2.741,0,4,0,1.293,0,2.742.056,4,0C56.882,64.265,55.359,66.219,54.118,67.586Zm13-15a61.47,61.47,0,0,1,2,6,59.283,59.283,0,0,1-6,1c.671-1.063,1.372-1.911,2-3C65.756,55.48,66.529,53.72,67.118,52.586Zm-4,2c-.961,1.669-1.933,3.4-3,5-1.882.134-4.018,0-6,0s-4.151.12-6,0c-1.1-1.6-2.029-3.322-3-5s-2.163-3.263-3-5c.835-1.738,2.037-3.33,3-5h0c.963-1.671,1.913-3.407,3-5,1.887-.143,4.045,0,6,0s4.114-.144,6,0c1.076,1.59,2.039,3.338,3,5s1.144,3.274,2,5C64.27,51.33,64.087,52.908,63.118,54.586Zm5-30c2.124,1.225,3.335,6.521,2,13-.087.422.1.581,0,1-2.632-.607-6.008-1.719-9-2a51.864,51.864,0,0,0-5-6c.475-.458.5-1.566,1-2C61.8,24.511,66.123,23.436,68.118,24.586Z" transform="translate(-17.364 -16.802)" fill="#fff"/><path d="M113.923,94.309c3.129,0,5,2.872,5,6s-1.871,6-5,6a6,6,0,0,1,0-12" transform="translate(-77.169 -67.524)" fill="#8989a2"/></g><path d="M398.2,449.924c0,1.467-.533,3-2,3a3.281,3.281,0,0,1-3-3c0-1.467,1.493-2,3-2C397.709,447.965,398.2,448.5,398.2,449.924Zm-11,6h0a6.923,6.923,0,0,0-4-1c-4.441,0-7,3.315-7,8,0,4.645,2.518,8,7,8a4.861,4.861,0,0,0,4-2v1c0,.326.674,0,1,0h3v-15h-3C387.875,454.925,387.2,455.639,387.2,455.924Zm0,9a3.772,3.772,0,0,1-3,2c-2.607,0-5-1.229-5-4a5.1,5.1,0,0,1,5-5,3.865,3.865,0,0,1,3,2Zm7-10h4v15h-4Zm58,0a6.923,6.923,0,0,0-4,1v-8h-4v22h4c.326,0,0,.285,0,0v-1a4.951,4.951,0,0,0,4,2,8,8,0,0,0,0-16Zm-1,12a3.709,3.709,0,0,1-3-2v-5c.611-.815,1.614-2,3-2a5.1,5.1,0,0,1,5,5C456.2,465.695,453.809,466.924,451.2,466.924Zm-9-6v9h-4v-8c0-2.526-.8-4-3-4-1.181,0-2.225,1.1-3,2v10h-4v-15h3c.326,0,1,.715,1,1h0c1.141-1.182,2.493-1,4-1,1.712,0,2.859.022,4,1C441.586,457.065,442.2,458.357,442.2,460.924Zm-23-6a6.926,6.926,0,0,0-4,1v-8h-4v22h3c.326,0,1,.285,1,0v-1a4.951,4.951,0,0,0,4,2,8,8,0,0,0,0-16Zm-1,12a3.71,3.71,0,0,1-3-2v-5c.611-.815,1.615-2,3-2a5.1,5.1,0,0,1,5,5C423.2,465.695,420.809,466.924,418.2,466.924Zm-11-12h2v3a6.236,6.236,0,0,0-5,2v10h-4v-15h3c.326,0,1,.715,1,1h0A3.624,3.624,0,0,1,407.2,454.924Zm-40,14c-.2-.489-.8-.551-1-1-.326-.733-.715-2.348-1-3h0c-2.812-6.112-5.821-11.889-9-18h0c-.334-.634-.683-1.357-1-2-.408-.734-.348-1.266-1-2-1.3-1.63-3-3-5-3a7.169,7.169,0,0,0-7,5c-.318.642-.667,1.366-1,2h0c-3.137,6.111-6.189,11.888-9,18h0c-.285.653-.674,1.267-1,2-.2.449-.8,1.47-1,2-.53,1.507-.2,2.533,0,4a8.692,8.692,0,0,0,5,7,7.472,7.472,0,0,0,3,1,8.117,8.117,0,0,0,1,0c1.345-.163,2.655-1.226,4-2a19.006,19.006,0,0,0,5-4,19.681,19.681,0,0,0,5,4,17.129,17.129,0,0,0,5,2,8.039,8.039,0,0,0,1,0,7.267,7.267,0,0,0,3-1,8.67,8.67,0,0,0,5-7A6.41,6.41,0,0,0,367.2,468.924Zm-19,2c-2.2-2.771-3.512-4.8-4-7a9.238,9.238,0,0,1,0-3,5.759,5.759,0,0,1,1-2c.774-1.1,1.492-1,3-1s3.267-.141,4,1a5.783,5.783,0,0,1,1,2,9.271,9.271,0,0,1,0,3C352.71,466.083,350.4,468.113,348.2,470.924Zm17,2a6.758,6.758,0,0,1-4,5,5.762,5.762,0,0,1-3,0,7.473,7.473,0,0,1-3-1,20.2,20.2,0,0,1-5-4c2.689-3.3,4.389-6.311,5-9a7.049,7.049,0,0,0-7-9c-2.362,0-3.737,1.207-5,3a7.475,7.475,0,0,0-1,3,6.219,6.219,0,0,0,0,3c.611,2.689,2.352,5.7,5,9a19.47,19.47,0,0,1-5,4,7.451,7.451,0,0,1-3,1,6.219,6.219,0,0,1-3,0,6.758,6.758,0,0,1-4-5c-.122-1.018.592-1.859,1-3,.122-.408-.2-.511,0-1,.285-.652.674-1.308,1-2v-1c2.811-6.071,5.863-11.97,9-18h0c.326-.611.674-1.389,1-2a10.176,10.176,0,0,1,1-2c.856-.977,2.737-1,4-1s2.144.023,3,1a10.247,10.247,0,0,1,1,2c.326.611.675,1.389,1,2h0c3.09,6.055,6.141,12.833,9,19h0l1,2c.2.488-.122.592,0,1C364.526,470.982,365.364,471.865,365.2,472.924Z" transform="translate(-116.201 3447.076)" fill="#8989a2"/><path d="M23,.361c0-.514.423,0,0,0H20c-1.059,0-2-.293-2,1v23a1.133,1.133,0,0,0,1,1h3c1.061,0,1-.7,1-2Zm31,8a1.209,1.209,0,0,0-1-1H50c-.649,0-.759.474-1,1l-5,10-6-10a2.209,2.209,0,0,0-2-1H32c-.8,0-.525.49-1,1l-7,7,6,9c.353.509.47,1,1,1h4a1.076,1.076,0,0,0,1-1c0-.276-.817.258-1,0l-5-8,4-5,8,12-4,8c-.1.223,0-.212,0,0a1.2,1.2,0,0,0,1,1h3c.653,0,.76-.473,1-1l11-22a3.3,3.3,0,0,0,0-1m-47,6a2.9,2.9,0,0,1-2-2c0-.418.039,0,1,0h8a1.913,1.913,0,0,0,2-2v-2a1.13,1.13,0,0,0-1-1H6a5.735,5.735,0,0,0-6,6c0,2.664,1.726,4.272,5,5l5,1c1.062.235,2,.457,2,1,0,.412-1.044,1-2,1H2a1.91,1.91,0,0,0-2,2v1a1.136,1.136,0,0,0,1,1h9c4.8,0,7-2.216,7-5,0-2.876-1.749-4.275-5-5Z" transform="translate(456 3895.639)" fill="#8989a2"/></g></svg>