<svg xmlns="http://www.w3.org/2000/svg" width="16" height="16" viewBox="0 0 16 16"><g transform="translate(-126.176 -2.014)"><circle cx="8" cy="8" r="8" transform="translate(126.176 2.014)" fill="#2daae1"/><path d="M242.212,144.466c-.375.166-.577-.051-1,0a1.933,1.933,0,0,0,1-1,10.335,10.335,0,0,1-2,1c-.381-.406-.4-1-1-1a1.939,1.939,0,0,0-2,2c0,.164-.035-.153,0,0a5.123,5.123,0,0,1-4-2c-.18.309-1,.617-1,1a2.653,2.653,0,0,0,1,2c-.332-.01-.71.162-1,0h0c0,1.013,1.043,1.808,2,2a6.93,6.93,0,0,1-1,0c-.135,0,.128.024,0,0,.266.831,1.085.983,2,1a5.527,5.527,0,0,1-3,1c-.169,0,.164.02,0,0a5.3,5.3,0,0,0,3,1,5.994,5.994,0,0,0,6-6c0-.091,0,.09,0,0A3.764,3.764,0,0,0,242.212,144.466Z" transform="translate(-103.036 -137.452)" fill="#fff"/></g></svg>