<svg xmlns="http://www.w3.org/2000/svg" width="26.311" height="17" viewBox="0 0 26.311 17"><path d="M26,12.5a14.819,14.819,0,0,0-13-8,14.821,14.821,0,0,0-13,8,.881.881,0,0,0,0,1,14.819,14.819,0,0,0,13,8,14.821,14.821,0,0,0,13-8A.881.881,0,0,0,26,12.5Zm-13,7c-3.559,0-7-2.441-7-6a7.434,7.434,0,0,1,7-7c3.559,0,6,3.441,6,7A5.71,5.71,0,0,1,13,19.5Zm0-11a3.292,3.292,0,0,0-1,0,2.438,2.438,0,0,1,0,3,2.438,2.438,0,0,1-3,0,4.912,4.912,0,0,0,2,5,4.291,4.291,0,0,0,5,0c1.459-1.119,1.593-3.26,1-5A4.29,4.29,0,0,0,13,8.5Z" transform="translate(0.156 -4.5)" fill="#722ed1"/></svg>